<?xml version="1.0" encoding="utf-8"?>
<!-- Generator: Adobe Illustrator 24.2.1, SVG Export Plug-In . SVG Version: 6.00 Build 0)  -->
<svg version="1.1" id="Layer_1" xmlns="http://www.w3.org/2000/svg" xmlns:xlink="http://www.w3.org/1999/xlink" x="0px" y="0px"
	 viewBox="0 0 878.9 510.2" style="enable-background:new 0 0 878.9 510.2;" xml:space="preserve">
<style type="text/css">
	.st0{clip-path:url(#SVGID_2_);}
	.st1{clip-path:url(#SVGID_4_);}
	.st2{fill:#FFFFFF;}
	.st3{font-family:'RadioGrotesk-Regular';}
	.st4{font-size:20px;}
	.st5{letter-spacing:-1;}
	.st6{fill:#F1F1F1;}
	.st7{font-size:30px;}
	.st8{letter-spacing:1;}
	.st9{fill:none;stroke:#FFFFFF;stroke-width:2;}
</style>
<g id="Group_17" transform="translate(-5 510.236)">
	<g>
		<defs>
			<rect id="SVGID_1_" x="107.3" y="-510.2" width="684.4" height="510.2"/>
		</defs>
		<clipPath id="SVGID_2_">
			<use xlink:href="#SVGID_1_"  style="overflow:visible;"/>
		</clipPath>
		<g id="Group_15" class="st0">
			<g id="Group_14" transform="translate(106.123 -511.422) rotate(90)">
				<g>
					<defs>
						<rect id="SVGID_3_" x="-87.3" y="-600.2" width="687.5" height="513"/>
					</defs>
					<clipPath id="SVGID_4_">
						<use xlink:href="#SVGID_3_"  style="overflow:visible;"/>
					</clipPath>
					<g id="Group_13" class="st1">
						
							<image style="overflow:visible;enable-background:new    ;" width="385" height="516" id="Rectangle_1" xlink:href="8961CE33A40A7D1A.png"  transform="matrix(1.3324 0 0 1.3324 0 -687.493)">
						</image>
					</g>
				</g>
			</g>
		</g>
	</g>
	<g id="Group">
		<text transform="matrix(6.123234e-17 -1 1 6.123234e-17 25 -348.7086)" class="st2 st3 st4 st5">Ag</text>
		<text transform="matrix(6.123234e-17 -1 1 6.123234e-17 25 -372.0495)" class="st2 st3 st4 st5">re</text>
		<text transform="matrix(6.123234e-17 -1 1 6.123234e-17 25 -387.9694)" class="st2 st3 st4 st5">e</text>
		<text transform="matrix(6.123234e-17 -1 1 6.123234e-17 877.86 -348.0094)" class="st2 st3 st4 st5">Ag</text>
		<text transform="matrix(6.123234e-17 -1 1 6.123234e-17 877.86 -371.3493)" class="st2 st3 st4 st5">re</text>
		<text transform="matrix(6.123234e-17 -1 1 6.123234e-17 877.86 -387.2692)" class="st2 st3 st4 st5">e</text>
		<text transform="matrix(6.123234e-17 -1 1 6.123234e-17 25 -181.5885)" class="st2 st3 st4">S</text>
		<text transform="matrix(6.123234e-17 -1 1 6.123234e-17 25 -192.5094)" class="st2 st3 st4">tr</text>
		<text transform="matrix(6.123234e-17 -1 1 6.123234e-17 25 -203.9294)" class="st2 st3 st4">ongly agr</text>
		<text transform="matrix(6.123234e-17 -1 1 6.123234e-17 25 -281.6491)" class="st2 st3 st4">e</text>
		<text transform="matrix(6.123234e-17 -1 1 6.123234e-17 25 -292.0465)" class="st2 st3 st4">e</text>
		<text transform="matrix(6.123234e-17 -1 1 6.123234e-17 877.86 -180.8893)" class="st2 st3 st4">S</text>
		<text transform="matrix(6.123234e-17 -1 1 6.123234e-17 877.86 -191.8092)" class="st2 st3 st4">tr</text>
		<text transform="matrix(6.123234e-17 -1 1 6.123234e-17 877.86 -203.2292)" class="st2 st3 st4">ongly agr</text>
		<text transform="matrix(6.123234e-17 -1 1 6.123234e-17 877.86 -280.9489)" class="st2 st3 st4">e</text>
		<text transform="matrix(6.123234e-17 -1 1 6.123234e-17 877.86 -291.3473)" class="st2 st3 st4">e</text>
	</g>
	<g id="Group-2">
		<text transform="matrix(1 0 0 1 709.246 -348.851)" class="st6 st3 st7 st8">32%</text>
		<text transform="matrix(1 0 0 1 614.896 -348.851)" class="st6 st3 st7 st8">31%</text>
		<text transform="matrix(1 0 0 1 522.166 -348.851)" class="st6 st3 st7 st8">32%</text>
		<text transform="matrix(1 0 0 1 422.416 -348.851)" class="st6 st3 st7 st8">28%</text>
		<text transform="matrix(1 0 0 1 322.666 -348.851)" class="st6 st3 st7 st8">29%</text>
		<text transform="matrix(1 0 0 1 229.666 -348.851)" class="st6 st3 st7 st8">29%</text>
		<text transform="matrix(1 0 0 1 130.156 -348.851)" class="st6 st3 st7 st8">24%</text>
		<text transform="matrix(1 0 0 1 708.946 -280.061)" class="st6 st3 st7 st8">53%</text>
		<text transform="matrix(1 0 0 1 611.416 -280.061)" class="st6 st3 st7 st8">37%</text>
		<text transform="matrix(1 0 0 1 522.136 -280.061)" class="st6 st3 st7 st8">29%</text>
		<text transform="matrix(1 0 0 1 422.686 -280.061)" class="st6 st3 st7 st8">22%</text>
		<text transform="matrix(1 0 0 1 326.416 -280.061)" class="st6 st3 st7 st8">18%</text>
		<text transform="matrix(1 0 0 1 233.416 -280.061)" class="st6 st3 st7 st8">18%</text>
		<text transform="matrix(1 0 0 1 130.306 -280.061)" class="st6 st3 st7 st8">20%</text>
	</g>
	<g id="Group_16" transform="translate(9 -331.075)">
		<path id="Path_2" class="st9" d="M0,0l868.9,9.2"/>
	</g>
</g>
</svg>
